<svg width="41" height="40" viewBox="0 0 41 40" fill="none" xmlns="http://www.w3.org/2000/svg">
    <path d="M33.6403 29.0089C32.216 28.3635 30.7115 27.8288 29.1511 27.4086C31.2138 25.2202 32.3979 22.3045 32.3979 19.2433C32.3979 12.6829 27.0607 7.3457 20.5003 7.3457C13.9399 7.3457 8.60272 12.6829 8.60272 19.2433C8.60272 22.3045 9.7868 25.2202 11.8495 27.4086C10.2891 27.8288 8.7846 28.3635 7.36035 29.0089C6.77105 29.2759 6.50952 29.9702 6.77655 30.5598C7.04388 31.1494 7.73846 31.4106 8.32775 31.1436C15.7222 27.7934 25.2784 27.7934 32.6728 31.1436C32.83 31.2147 32.9942 31.2486 33.1559 31.2483C33.6018 31.2483 34.0281 30.9926 34.2241 30.5598C34.4911 29.9702 34.2296 29.2759 33.6403 29.0089V29.0089ZM14.6421 26.7897C12.3198 24.9836 10.9465 22.198 10.9465 19.2433C10.9465 13.9753 15.2324 9.68945 20.5003 9.68945C25.7682 9.68945 30.0541 13.9753 30.0541 19.2433C30.0541 22.198 28.6805 24.9836 26.3585 26.7897C24.4523 26.4549 22.487 26.2831 20.5003 26.2831C18.5136 26.2831 16.5483 26.4549 14.6421 26.7897V26.7897Z" fill="white"/>
    <path d="M21.1916 17.2416V15.1167C22.1379 15.1893 22.4144 15.6553 22.8948 15.6553C23.5353 15.6553 23.7972 14.8546 23.7972 14.4615C23.7972 13.4575 22.0943 13.2243 21.1916 13.1953V12.8312C21.1916 12.6277 20.9151 12.4385 20.6386 12.4385C20.3185 12.4385 20.0853 12.6277 20.0853 12.8312V13.239C18.5427 13.4575 17.1743 14.3452 17.1743 16.1937C17.1743 18.0571 18.7462 18.683 20.0853 19.1923V21.5504C19.0084 21.3612 18.5134 20.5024 17.9021 20.5024C17.3488 20.5024 16.9121 21.23 16.9121 21.725C16.9121 22.6567 18.3388 23.5591 20.0853 23.6174V23.9811C20.0853 24.185 20.3182 24.3742 20.6386 24.3742C20.9151 24.3742 21.1916 24.185 21.1916 23.9811V23.5591C22.8948 23.2826 24.059 22.1907 24.059 20.3859C24.0593 18.4208 22.5164 17.7366 21.1916 17.2416ZM20.2309 16.8925C19.6779 16.6594 19.2995 16.3975 19.2995 15.9755C19.2995 15.626 19.576 15.2913 20.2309 15.1603V16.8925ZM21.046 21.5358V19.5851C21.57 19.8326 21.9341 20.1384 21.9341 20.6187C21.9341 21.1427 21.541 21.4192 21.046 21.5358Z" fill="white"/>
</svg>
